<svg xmlns="http://www.w3.org/2000/svg" viewBox="0 0 1200 800" fill="none">
  <g stroke="#b9cc9e" stroke-opacity=".26" stroke-width="1.4">
    <path d="M1098 86c-95-79-248-99-368-46-120 52-206 169-328 215C280 301 114 274 22 376c-93 103-24 267 94 329 118 62 266 40 375-27 110-66 191-173 307-226 116-53 276-45 354-146 78-101 41-220-54-220Z"/>
    <path d="M1052 126c-82-65-216-81-321-38-106 43-187 141-295 183-107 42-249 26-333 111-84 85-27 224 73 279 99 55 225 42 321-13 96-55 169-146 270-194 101-48 239-46 308-132 69-86 59-131-23-196Z"/>
    <path d="M988 168c-69-49-181-58-271-25-89 34-163 112-256 151-92 39-211 34-286 100-76 66-29 181 53 227 82 46 186 42 268-2 82-43 147-118 232-163 86-44 201-49 262-119 61-70 67-120-2-169Z"/>
    <path d="M919 210c-57-34-146-36-220-11-75 26-139 84-215 119-77 35-173 43-240 90-67 47-31 138 34 176 65 38 147 43 215 11 68-32 124-89 196-129 72-40 164-54 216-108 53-54 70-114 14-148Z"/>
    <path d="M846 251c-44-19-111-16-167 2-56 19-112 57-172 87-59 30-135 49-193 80-58 31-33 96 15 125 48 29 108 43 161 22 53-21 101-62 159-97 58-35 127-57 171-96 44-38 70-104 26-123Z"/>
    <path d="M769 292c-31-5-76 4-113 17-38 13-85 30-130 54-45 23-98 55-145 70-47 16-35 54-4 75 32 21 69 42 107 32 38-9 79-35 124-65 44-29 93-60 126-84 32-24 66-94 35-99Z"/>
  </g>
  <g fill="#87b3ad" fill-opacity=".24">
    <circle cx="175" cy="442" r="7"/><circle cx="355" cy="341" r="5"/><circle cx="520" cy="287" r="8"/><circle cx="733" cy="367" r="5"/><circle cx="894" cy="239" r="7"/>
  </g>
</svg>
