<svg xmlns="http://www.w3.org/2000/svg" viewBox="0 0 520 720" role="img" aria-labelledby="t d">
<title id="t">Seeds of desirable futures</title><desc id="d">An original illustration of diverse local initiatives branching into alternative futures.</desc>
<rect width="520" height="720" fill="#f4efe4"/>
<g stroke="#002f5f" stroke-width="5" fill="none" stroke-linecap="round">
<path d="M260 604V395"/><path d="M260 482C214 432 166 410 105 394"/><path d="M260 445c53-70 103-99 170-110"/><path d="M260 526c67-18 117-7 165 32"/>
</g>
<g fill="#a3a86b"><path d="M260 414c-52-20-84-66-75-111 49 4 85 46 75 111Z"/><path d="M265 382c20-67 70-104 121-92-4 57-48 98-121 92Z"/></g>
<g fill="#eb7125">
<path d="M62 325l43-25 43 25v50l-43 25-43-25z"/><path d="M382 265l48-28 48 28v56l-48 28-48-28z"/><path d="M373 534l52-30 52 30v60l-52 30-52-30z"/>
</g>
<g fill="#9bb2ce"><path d="M142 202l39-23 39 23v46l-39 23-39-23z"/><path d="M282 146l42-24 42 24v49l-42 24-42-24z"/></g>
<g fill="#002f5f"><circle cx="260" cy="604" r="31"/><circle cx="260" cy="604" r="10" fill="#f4efe4"/></g>
<path d="M86 664c114-31 230-30 348 0" fill="none" stroke="#a1d8e0" stroke-width="18" stroke-linecap="round"/>
</svg>
